<svg version="1.1" xmlns="http://www.w3.org/2000/svg" viewBox="0 0 1322.6411018371582 626.5" width="1322.6411018371582" height="626.5">
  <!-- svg-source:excalidraw -->
  
  <defs>
    <style>
      @font-face {
        font-family: "Virgil";
        src: url("https://excalidraw.com/Virgil.woff2");
      }
      @font-face {
        font-family: "Cascadia";
        src: url("https://excalidraw.com/Cascadia.woff2");
      }
    </style>
  </defs>
  <rect x="0" y="0" width="1322.6411018371582" height="626.5" fill="#ffffff"></rect><g stroke-linecap="round" transform="translate(10 304.5) rotate(0 91.5 51)"><path d="M-0.28 -1.82 C61.08 2.18, 117.22 -4.08, 181.75 0.62 M1.67 -0.26 C57.57 2.21, 110.63 2.73, 184.19 -1.72 M186.87 -1.12 C179.97 27.76, 181.54 57.95, 183.4 102.36 M184.09 1.25 C181.79 31.2, 182.18 65.05, 184.92 103.51 M186.97 100.2 C131.14 104.53, 78.13 100.49, 2.85 103.88 M181.73 101.89 C135.64 104.93, 93.32 104.43, 0.02 103.12 M-3.3 98.75 C1.19 70.13, 2.44 43.79, -2.44 -1.07 M0.91 103.49 C-1.92 75.88, -1.34 53.03, 1.58 -0.32" stroke="#000000" stroke-width="1" fill="none"></path></g><g transform="translate(29 338) rotate(0 72.5 17.5)"><text x="72.5" y="25" font-family="Virgil, Segoe UI Emoji" font-size="28px" fill="#000000" text-anchor="middle" style="white-space: pre;" direction="ltr">Application</text></g><g stroke-linecap="round" transform="translate(339 300.5) rotate(0 79.5 50.5)"><path d="M2.01 -1.94 C36.49 4.24, 64.02 1.52, 156.51 1.26 M-1.27 -1.86 C44.34 -2.82, 91.65 -2.68, 158.14 -1.36 M155.84 -1.84 C158.94 25.64, 154.75 53.02, 158.58 97.21 M160.17 -1.91 C159.28 33.34, 156.57 64.92, 160.75 102.03 M155.54 98.1 C125.4 102.74, 90.44 98.6, 3.03 102.11 M160.61 100.43 C111.91 100.17, 66.34 97.54, 0.61 101.13 M-3.11 104.01 C-4.91 71.71, -3.01 44.95, -3.33 -1.01 M0.26 102.75 C0.16 65.18, -0.81 28.58, -1.41 -0.57" stroke="#000000" stroke-width="1" fill="none"></path></g><g transform="translate(373.5 333.5) rotate(0 45 17.5)"><text x="45" y="25" font-family="Virgil, Segoe UI Emoji" font-size="28px" fill="#000000" text-anchor="middle" style="white-space: pre;" direction="ltr">Logger</text></g><g stroke-linecap="round" transform="translate(696 174.5) rotate(0 74 36.5)"><path d="M0.81 0.35 C40.37 0.85, 78.55 1.96, 150.99 3.44 M0.12 1.93 C42.56 0.24, 86.19 -0.33, 149.26 -0.88 M150.23 -2.49 C150.94 25.66, 150.33 42.94, 149.34 71.43 M147.89 -0.69 C148.88 16.7, 150.49 37.04, 147.64 73.66 M145.24 74.97 C99.04 72.46, 53.33 71.51, 3.67 76.96 M149.33 73.31 C102.54 75.6, 56.51 74.38, -0.01 73.09 M0.5 73.97 C-0.83 51.14, -0.34 27.34, -2.32 2.18 M0.21 74.98 C-0.58 50.76, 0.45 25.99, -1.25 0.34" stroke="#000000" stroke-width="1" fill="none"></path></g><g transform="translate(734 193.5) rotate(0 36 17.5)"><text x="36" y="25" font-family="Virgil, Segoe UI Emoji" font-size="28px" fill="#000000" text-anchor="middle" style="white-space: pre;" direction="ltr">INFO</text></g><g stroke-linecap="round" transform="translate(707.5 393.5) rotate(0 67 32)"><path d="M3.33 0.5 C41.79 -0.75, 83.42 -0.26, 135.63 -2.32 M-1.73 0.21 C49.48 -0.82, 96.29 0.21, 134.07 -1.25 M132.09 -2.41 C131.07 21.38, 137.13 42.64, 137.22 64.35 M132.83 -0.25 C132.19 23.67, 131.04 46.98, 132.7 63.58 M134.31 60.42 C101.84 69.03, 64.49 61.67, -3.13 65.36 M135.1 65.9 C93.66 62.3, 55.64 63.33, -0.38 62.71 M3.59 66.57 C3.01 36.45, 0.92 14.91, -0.88 -1.57 M-0.07 64.7 C1.52 41.86, 0.41 22.62, 1.55 0.26" stroke="#000000" stroke-width="1" fill="none"></path></g><g transform="translate(735.5 408) rotate(0 39 17.5)"><text x="39" y="25" font-family="Virgil, Segoe UI Emoji" font-size="28px" fill="#000000" text-anchor="middle" style="white-space: pre;" direction="ltr">WARN</text></g><g stroke-linecap="round" transform="translate(697.5 287.5) rotate(0 74 35)"><path d="M-0.44 1.63 C45.67 0.86, 96.88 -0.52, 144.55 0.42 M0.75 0.07 C57.8 -1.58, 117.81 -1.54, 147.05 -1.2 M150.08 3.22 C148.74 18.58, 145.21 34.91, 145.66 69.49 M149 -1.3 C148.05 17.58, 148.6 37.59, 148.15 68.21 M144.13 66.87 C91.19 71.24, 32.33 70.96, 2.19 73.8 M147.81 69.62 C114.14 70.52, 81.24 68, 1.8 71.28 M1.01 69.12 C-0.69 46.73, -0.15 22.2, -0.15 1.41 M0.79 71.55 C1 45.66, -0.39 19.11, -1.47 -0.67" stroke="#000000" stroke-width="1" fill="none"></path></g><g transform="translate(722.5 305) rotate(0 49 17.5)"><text x="49" y="25" font-family="Virgil, Segoe UI Emoji" font-size="28px" fill="#000000" text-anchor="middle" style="white-space: pre;" direction="ltr">ERROR</text></g><g stroke-linecap="round" transform="translate(623 97.5) rotate(0 140 226)"><path d="M2.94 -2.07 C114.11 0.14, 224.3 3.51, 280.28 -1.8 M0.1 -0.71 C73.03 4.77, 143.1 1.87, 280.49 0.79 M281.09 0.51 C280.57 174.83, 280.74 349.29, 280.8 453.32 M279.93 0.01 C277.91 152.86, 278.02 307.37, 280.07 452.92 M279.88 450.71 C183.96 448.72, 92.16 446.9, -1.36 449.47 M279.71 452.88 C221.61 457.6, 163.02 456.04, -0.3 452.16 M-1.12 451.61 C0.52 359.04, -0.48 266.84, -0.35 -0.29 M-0.14 452.87 C3.77 357.37, 2.31 263.67, 0.67 -0.6" stroke="#000000" stroke-width="1" fill="none"></path></g><g stroke-linecap="round" transform="translate(1086.6411018371582 165) rotate(0 74 36.5)"><path d="M-3.77 -0.6 C47.28 -2.64, 86.33 -0.59, 148.15 -2.35 M-1.84 -1.38 C51.64 0.14, 104.6 2.04, 146.9 -1.43 M148.7 1.54 C145.18 18.76, 150.22 39.45, 144.4 74.1 M148.67 0.39 C145.39 23.13, 145.42 45.47, 146.3 73.99 M150.61 73.63 C96.81 76.7, 54.7 70.77, -3.42 71.23 M149.93 72.66 C111.97 73.37, 79.42 73.14, -0.93 72.52 M-1.56 70.36 C4.82 52.23, 4.22 20.9, 0.07 1.88 M0.36 72.87 C-1.84 49.73, 0.17 22.29, 1.54 1.71" stroke="#000000" stroke-width="1" fill="none"></path></g><g transform="translate(1109.6411018371582 184) rotate(0 51 17.5)"><text x="51" y="25" font-family="Virgil, Segoe UI Emoji" font-size="28px" fill="#000000" text-anchor="middle" style="white-space: pre;" direction="ltr">Console</text></g><g stroke-linecap="round" transform="translate(1094.6411018371582 306) rotate(0 74 36.5)"><path d="M-0.28 0.15 C55.78 2.49, 115.54 0, 144.33 -2.76 M1.6 -1.1 C44.85 -2.97, 93.95 -3.94, 148.35 0.77 M145.66 -3.6 C148.33 15.7, 144.71 31.54, 149.35 73.79 M146.73 -1.7 C148.81 16.28, 148.9 31.9, 149.31 73.32 M145.09 69.58 C111.54 73.05, 74.94 76.17, 3.87 72.31 M147.9 72.07 C117.51 73.03, 86.67 70.42, -0.78 71.68 M-3.58 73.07 C0.61 45.43, 0.18 18.99, 0.72 -0.25 M-1.83 74.54 C0.85 56.49, -0.75 40.4, 0.1 -1.25" stroke="#000000" stroke-width="1" fill="none"></path></g><g transform="translate(1145.1411018371582 325) rotate(0 23.5 17.5)"><text x="23.5" y="25" font-family="Virgil, Segoe UI Emoji" font-size="28px" fill="#000000" text-anchor="middle" style="white-space: pre;" direction="ltr">File</text></g><g stroke-linecap="round" transform="translate(1095.6411018371582 430) rotate(0 74 40)"><path d="M3.64 3.2 C31.98 -2.41, 67.8 3.25, 145.51 0.7 M0.6 -1.17 C48.31 2.13, 100.62 0.32, 148.88 0.67 M144.68 -2.55 C143.24 27.56, 147.77 53.32, 148.92 82.61 M149.92 -1.46 C145.24 24.38, 145.56 48.69, 148.16 81.93 M147.17 79.8 C104.29 79.23, 65.58 77.58, -3.92 78.44 M149.63 78.21 C113.39 83.52, 79.4 83.31, 1.95 80.36 M1.4 76.33 C4.12 59.92, 2.28 33.23, 3.32 0.2 M-0.56 79.71 C-0.7 59.16, -2.09 42.02, -1.91 0.21" stroke="#000000" stroke-width="1" fill="none"></path></g><g transform="translate(1119.1411018371582 457.5) rotate(0 50.5 12.5)"><text x="50.5" y="18" font-family="Virgil, Segoe UI Emoji" font-size="20px" fill="#000000" text-anchor="middle" style="white-space: pre;" direction="ltr">Database</text></g><g stroke-linecap="round" transform="translate(1037.6411018371582 53.5) rotate(0 137.5 281.5)"><path d="M-0.82 -1.26 C111.68 -0.78, 219.15 -0.17, 276.65 -1.48 M-0.91 1.48 C73.1 3.6, 147.16 3.97, 275.62 -0.6 M274.5 0.02 C271.7 133.14, 272.01 267.78, 274.9 563.6 M275.68 -0.7 C272.29 193.3, 272.2 385.36, 274.89 562.46 M277.7 560.76 C211.93 566.74, 153.03 564.91, 1.86 560.08 M273.53 562.06 C177.32 563.41, 76.23 565.6, 0.46 562.8 M-1.12 561.53 C2.42 374.19, 1.83 183.79, 1 1.07 M0.73 562.43 C-0.33 384.91, -0.04 207.59, 0.44 0.46" stroke="#000000" stroke-width="1" fill="none"></path></g><g transform="translate(1124.6411018371582 10) rotate(0 34.5 17.5)"><text x="0" y="25" font-family="Virgil, Segoe UI Emoji" font-size="28px" fill="#000000" text-anchor="start" style="white-space: pre;" direction="ltr">SINK</text></g><g transform="translate(724.6411018371582 59) rotate(0 43.5 17.5)"><text x="0" y="25" font-family="Virgil, Segoe UI Emoji" font-size="28px" fill="#000000" text-anchor="start" style="white-space: pre;" direction="ltr">Levels</text></g><g stroke-linecap="round"><g transform="translate(192.6411018371582 357.5) rotate(0 69.65075269699099 1.9232895740899778)"><path d="M-0.43 1.74 C22.24 2.09, 114.29 4.45, 138.06 4.37 M-4.1 0.22 C19.27 -0.53, 119.13 -0.74, 143.4 -0.28" stroke="#000000" stroke-width="1" fill="none"></path></g><g transform="translate(192.6411018371582 357.5) rotate(0 69.65075269699099 1.9232895740899778)"><path d="M117.64 7.03 C126.49 9.25, 132.51 5.07, 146.8 2.16 M116.91 10.43 C125.5 6.51, 132.08 2.87, 144.76 1.62" stroke="#000000" stroke-width="1" fill="none"></path></g><g transform="translate(192.6411018371582 357.5) rotate(0 69.65075269699099 1.9232895740899778)"><path d="M117.77 -13.49 C126.9 -3.62, 132.87 -0.14, 146.8 2.16 M117.04 -10.09 C125.94 -7.36, 132.48 -4.35, 144.76 1.62" stroke="#000000" stroke-width="1" fill="none"></path></g></g><g stroke-linecap="round"><g transform="translate(500.6411018371582 345.5) rotate(0 58.30472410060469 3.3578275112410836)"><path d="M-1.62 2.35 C18.09 3.7, 97.95 5.86, 118.23 5.52 M2.69 1.16 C21.96 2.01, 96.22 1.74, 115.58 1.88" stroke="#000000" stroke-width="1" fill="none"></path></g><g transform="translate(500.6411018371582 345.5) rotate(0 58.30472410060469 3.3578275112410836)"><path d="M90.72 10.99 C99.59 10.86, 100.62 8.14, 116.83 4.79 M87.95 12.69 C93.31 10.11, 101.52 7.92, 117.46 1.85" stroke="#000000" stroke-width="1" fill="none"></path></g><g transform="translate(500.6411018371582 345.5) rotate(0 58.30472410060469 3.3578275112410836)"><path d="M90.76 -9.53 C99.24 -3.54, 100.26 -0.12, 116.83 4.79 M87.99 -7.83 C93.6 -5.48, 101.8 -2.73, 117.46 1.85" stroke="#000000" stroke-width="1" fill="none"></path></g></g><g stroke-linecap="round"><g transform="translate(1155.6411018371582 195.5) rotate(0 -1.762113943633267 0.3294550232530611)"><path d="M0.27 2.29 C-0.22 2.61, -0.77 2.18, -0.96 2.11 M-3.03 1.07 C-4.16 0.6, -3.7 -1.14, -3.72 -1.75" stroke="#000000" stroke-width="1" fill="none"></path></g><g transform="translate(1155.6411018371582 195.5) rotate(0 -1.762113943633267 0.3294550232530611)"><path d="M-3.72 -1.75 C-3.72 -1.75, -3.72 -1.75, -3.72 -1.75 M-3.72 -1.75 C-3.72 -1.75, -3.72 -1.75, -3.72 -1.75" stroke="#000000" stroke-width="1" fill="none"></path></g><g transform="translate(1155.6411018371582 195.5) rotate(0 -1.762113943633267 0.3294550232530611)"><path d="M-3.72 -1.75 C-3.72 -1.75, -3.72 -1.75, -3.72 -1.75 M-3.72 -1.75 C-3.72 -1.75, -3.72 -1.75, -3.72 -1.75" stroke="#000000" stroke-width="1" fill="none"></path></g></g><g stroke-linecap="round"><g transform="translate(1036.6411018371582 200.5) rotate(0 -68.38165896415717 15.528292057402439)"><path d="M-0.78 -0.99 C-23.81 4.59, -114.9 28.94, -137.98 35.05 M3.99 -4 C-19.53 0.67, -117.82 25.22, -140.75 31.16" stroke="#000000" stroke-width="1" fill="none"></path></g><g transform="translate(1036.6411018371582 200.5) rotate(0 -68.38165896415717 15.528292057402439)"><path d="M-117.34 12.91 C-120.44 16.15, -127.17 21.55, -141.57 34.02 M-117.22 15.48 C-122.37 20.84, -132.41 26.63, -139.03 30.38" stroke="#000000" stroke-width="1" fill="none"></path></g><g transform="translate(1036.6411018371582 200.5) rotate(0 -68.38165896415717 15.528292057402439)"><path d="M-112.32 32.8 C-117.18 29.9, -125.46 29.19, -141.57 34.02 M-112.2 35.38 C-118.89 34.58, -130.49 34.19, -139.03 30.38" stroke="#000000" stroke-width="1" fill="none"></path></g></g></svg>